<!DOCTYPE svg PUBLIC "-//W3C//DTD SVG 1.1//EN" "http://www.w3.org/Graphics/SVG/1.1/DTD/svg11.dtd">
<!-- Uploaded to: SVG Repo, www.svgrepo.com, Transformed by: SVG Repo Mixer Tools -->
<svg fill="#ffa600" version="1.1" id="Capa_1" xmlns="http://www.w3.org/2000/svg" xmlns:xlink="http://www.w3.org/1999/xlink" width="800px" height="800px" viewBox="0 0 44.748 44.748" xml:space="preserve">
<g id="SVGRepo_bgCarrier" stroke-width="0"/>
<g id="SVGRepo_tracerCarrier" stroke-linecap="round" stroke-linejoin="round"/>
<g id="SVGRepo_iconCarrier"> <g> <g> <path d="M23.312,0.022c-0.166,2.813-0.638,11.498-0.804,21.65c-0.155,9.456,0.429,19.055,0.714,23.053 c0.688-0.027,1.368-0.084,2.041-0.172c1.098-1.828,6.19-10.91,6.014-21.701c-0.174-10.6-5.834-20.467-7.258-22.785 C23.785,0.05,23.55,0.035,23.312,0.022z"/> <path d="M31.562,1.981c3.74,3.971,9.541,11.535,9.687,20.389c0.138,8.355-4.534,15.459-7.935,19.508 c6.817-3.838,11.434-11.141,11.434-19.504C44.748,13.312,39.329,5.496,31.562,1.981z"/> <path d="M26.542,0.396c2.173,3.811,6.576,12.703,6.735,22.424c0.158,9.594-3.521,17.695-5.434,21.248 c0.297-0.074,0.592-0.158,0.885-0.246c1.361-1.264,10.701-10.35,10.521-21.418C39.055,10.521,27.312,0.656,27.193,0.559 l0.021-0.025C26.991,0.483,26.768,0.438,26.542,0.396z"/> <path d="M15.783,43.755c0.269,0.084,0.54,0.158,0.813,0.232c-1.927-3.598-5.546-11.652-5.39-21.168 c0.159-9.678,4.523-18.533,6.707-22.373c-0.182,0.037-0.359,0.082-0.539,0.123C17.026,0.86,5.526,10.642,5.334,22.403 C5.156,33.317,14.2,42.274,15.783,43.755z"/> <path d="M21.309,0.026c-0.286,0.014-0.57,0.037-0.854,0.061c-1.447,2.363-7.074,12.215-7.247,22.766 c-0.176,10.726,4.854,19.761,5.993,21.666c0.664,0.095,1.336,0.164,2.018,0.198c-0.29-4.125-0.862-13.672-0.708-23.077 C20.675,11.602,21.137,2.981,21.309,0.026z"/> <path d="M12.901,2.11C5.287,5.686,0,13.421,0,22.374c0,8.236,4.477,15.441,11.12,19.324C7.734,37.62,3.2,30.604,3.335,22.37 C3.478,13.61,9.157,6.115,12.901,2.11z"/> </g> </g> </g>
</svg>